<svg width="40" height="40" viewBox="0 0 40 40" fill="none" xmlns="http://www.w3.org/2000/svg">
<path id="Vector" d="M20 0C8.955 0 0 8.955 0 20C0 31.045 8.955 40 20 40C31.045 40 40 31.045 40 20C40 8.955 31.045 0 20 0ZM30 31.25C18.2825 31.25 8.75 21.7175 8.75 10C8.75 9.31 9.31 8.75 10 8.75H14.615C15.305 8.75 15.865 9.31 15.865 10C15.865 12.16 16.335 14.2175 17.2625 16.1125C17.41 16.4125 17.43 16.755 17.32 17.07C17.2125 17.385 16.9825 17.6425 16.6825 17.7875L14.8175 18.6875C16.37 21.39 18.61 23.6325 21.31 25.18L22.21 23.3175C22.355 23.0175 22.6125 22.79 22.9275 22.68C23.2425 22.5725 23.5875 22.5925 23.885 22.7375C25.785 23.665 27.84 24.135 29.9975 24.135C30.6875 24.135 31.2475 24.695 31.2475 25.385V30H31.25C31.25 30.69 30.69 31.25 30 31.25Z" fill="white"/>
</svg>
