<svg width="40" height="40" viewBox="0 0 40 40" fill="none" xmlns="http://www.w3.org/2000/svg">
<g id="mail 1">
<g id="Group">
<g id="Group_2">
<path id="Vector" d="M39.6477 7.94702L27.5165 20.0001L39.6477 32.0531C39.867 31.5948 40.0001 31.088 40.0001 30.5469V9.45319C40.0001 8.91202 39.867 8.40538 39.6477 7.94702Z" fill="white"/>
</g>
</g>
<g id="Group_3">
<g id="Group_4">
<path id="Vector_2" d="M36.4844 5.9375H3.51568C2.97451 5.9375 2.46787 6.07055 2.00951 6.28984L17.5144 21.7167C18.8854 23.0876 21.1147 23.0876 22.4857 21.7167L37.9906 6.28984C37.5322 6.07055 37.0256 5.9375 36.4844 5.9375Z" fill="white"/>
</g>
</g>
<g id="Group_5">
<g id="Group_6">
<path id="Vector_3" d="M0.352344 7.94702C0.133047 8.40538 0 8.91202 0 9.45319V30.5469C0 31.0881 0.133047 31.5948 0.352344 32.0531L12.4835 20.0001L0.352344 7.94702Z" fill="white"/>
</g>
</g>
<g id="Group_7">
<g id="Group_8">
<path id="Vector_4" d="M25.8594 21.6572L24.1428 23.3739C21.8585 25.6582 18.1415 25.6582 15.8572 23.3739L14.1407 21.6572L2.00951 33.7103C2.46787 33.9296 2.97451 34.0626 3.51568 34.0626H36.4844C37.0256 34.0626 37.5322 33.9296 37.9906 33.7103L25.8594 21.6572Z" fill="white"/>
</g>
</g>
</g>
</svg>
