<svg width="40" height="41" viewBox="0 0 40 41" fill="none" xmlns="http://www.w3.org/2000/svg">
<path id="Vector" d="M29.9445 0H10.0238C4.50436 0 0 4.61783 0 10.2763V30.7313C0 36.3573 4.50436 40.9751 10.0238 40.9751H29.9762C35.4956 40.9751 40 36.3573 40 30.6988V10.2763C39.9683 4.61783 35.4639 0 29.9445 0ZM13.3228 33.1703H7.61301V16.26H13.3228V33.1703ZM10.4362 13.6584C8.8184 13.6584 7.51784 12.325 7.51784 10.6665C7.51784 9.00802 8.8184 7.6747 10.4362 7.6747C12.0539 7.6747 13.3545 9.00802 13.3545 10.6665C13.3228 12.325 12.0222 13.6584 10.4362 13.6584ZM32.387 33.1703H32.3553H27.5971V24.9753C27.5971 22.9916 27.3434 20.455 24.7105 20.455C22.0143 20.455 21.5702 22.6013 21.5702 24.8452V33.1703H16.8121V16.26H21.253V18.5364H21.3799C22.0777 17.2356 23.6955 16.2274 26.2331 16.2274C31.4671 16.2274 32.387 19.3168 32.387 23.9021V33.1703Z" fill="white"/>
</svg>
